<svg width="24" height="24" viewBox="0 0 24 24" fill="none" xmlns="http://www.w3.org/2000/svg">
<path d="M12.0051 6.16013C8.7399 6.16013 6.10619 8.76521 6.10619 11.9949C6.10619 15.2246 8.7399 17.8297 12.0051 17.8297C15.2703 17.8297 17.904 15.2246 17.904 11.9949C17.904 8.76521 15.2703 6.16013 12.0051 6.16013ZM12.0051 15.7883C9.89503 15.7883 8.17003 14.0871 8.17003 11.9949C8.17003 9.90271 9.8899 8.20154 12.0051 8.20154C14.1203 8.20154 15.8401 9.90271 15.8401 11.9949C15.8401 14.0871 14.1151 15.7883 12.0051 15.7883ZM19.5211 5.92146C19.5211 6.6781 18.9051 7.2824 18.1453 7.2824C17.3803 7.2824 16.7694 6.67302 16.7694 5.92146C16.7694 5.1699 17.3854 4.56052 18.1453 4.56052C18.9051 4.56052 19.5211 5.1699 19.5211 5.92146ZM23.4281 7.30271C23.3408 5.47966 22.9198 3.86482 21.5696 2.53435C20.2245 1.20388 18.5919 0.787476 16.7488 0.696069C14.8493 0.589429 9.15575 0.589429 7.25619 0.696069C5.41825 0.782397 3.78566 1.1988 2.43544 2.52927C1.08521 3.85974 0.669364 5.47458 0.576953 7.29763C0.469141 9.17654 0.469141 14.8082 0.576953 16.6871C0.66423 18.5101 1.08521 20.125 2.43544 21.4554C3.78566 22.7859 5.41311 23.2023 7.25619 23.2937C9.15575 23.4004 14.8493 23.4004 16.7488 23.2937C18.5919 23.2074 20.2245 22.791 21.5696 21.4554C22.9147 20.125 23.3357 18.5101 23.4281 16.6871C23.5359 14.8082 23.5359 9.18162 23.4281 7.30271ZM20.9741 18.7031C20.5736 19.6984 19.7984 20.4652 18.787 20.8664C17.2725 21.4605 13.6787 21.3234 12.0051 21.3234C10.3314 21.3234 6.73253 21.4554 5.22316 20.8664C4.21691 20.4703 3.44169 19.7035 3.0361 18.7031C2.43544 17.2051 2.57405 13.6504 2.57405 11.9949C2.57405 10.3394 2.44057 6.77966 3.0361 5.28669C3.43655 4.29138 4.21177 3.52458 5.22316 3.12341C6.73767 2.52927 10.3314 2.66638 12.0051 2.66638C13.6787 2.66638 17.2776 2.53435 18.787 3.12341C19.7932 3.51951 20.5685 4.2863 20.9741 5.28669C21.5747 6.78474 21.4361 10.3394 21.4361 11.9949C21.4361 13.6504 21.5747 17.2101 20.9741 18.7031Z" fill="#131313"/>
</svg>
