<svg width="22" height="26" viewBox="0 0 22 26" fill="none" xmlns="http://www.w3.org/2000/svg">
<g clip-path="url(#clip0_605_2765)">
<path d="M4.92545 22.3751H0.363393V7.77063H4.92545V22.3751ZM2.64196 5.77844C1.18348 5.77844 0 4.57727 0 3.12708C0 2.43036 0.278349 1.76219 0.773813 1.26954C1.26928 0.77689 1.94127 0.500122 2.64196 0.500122C3.34266 0.500122 4.01465 0.77689 4.51012 1.26954C5.00558 1.76219 5.28393 2.43036 5.28393 3.12708C5.28393 4.57727 4.10045 5.77844 2.64196 5.77844ZM21.9951 22.3751H17.4429V15.2657C17.4429 13.5714 17.4085 11.3986 15.071 11.3986C12.6991 11.3986 12.3357 13.2394 12.3357 15.1437V22.3751H7.77857V7.77063H12.154V9.76282H12.2179C12.8268 8.61536 14.3147 7.40442 16.5344 7.40442C21.1504 7.40442 22 10.4269 22 14.3527V22.3751H21.9951Z" fill="#131313"/>
</g>
<defs>
<clipPath id="clip0_605_2765">
<rect width="22" height="25" fill="white" transform="translate(0 0.500122)"/>
</clipPath>
</defs>
</svg>
