<?xml version="1.0" encoding="utf-8"?>
<!-- Generator: Adobe Illustrator 25.4.1, SVG Export Plug-In . SVG Version: 6.00 Build 0)  -->
<svg version="1.1" id="Calque_1" xmlns="http://www.w3.org/2000/svg" xmlns:xlink="http://www.w3.org/1999/xlink" x="0px" y="0px"
	 width="133px" height="27.5px" viewBox="0 0 133 27.5" style="enable-background:new 0 0 133 27.5;" xml:space="preserve">
<path d="M11.2,26.2v0.7H0v-0.7h0.9c1.1,0,1.9-0.3,2.4-0.9c0.3-0.4,0.5-1.4,0.5-3v-17c0-1.3-0.1-2.2-0.3-2.6C3.3,2.3,3.1,2,2.7,1.8
	C2.2,1.5,1.5,1.3,0.9,1.3H0V0.6h11.2v0.7h-0.9c-1.1,0-1.8,0.3-2.3,0.9c-0.3,0.4-0.5,1.4-0.5,3v17c0,1.3,0.1,2.2,0.3,2.6
	c0.2,0.4,0.5,0.7,0.8,0.8c0.5,0.3,1.1,0.5,1.8,0.5H11.2z"/>
<path d="M9.7,0.6h7.1l16,19.7V5.2c0-1.6-0.2-2.6-0.5-3C31.8,1.6,31,1.3,30,1.3h-0.9V0.6h9.1v0.7h-0.9c-1.1,0-1.9,0.3-2.4,1
	c-0.3,0.4-0.4,1.4-0.4,2.8v22.1h-0.7L16.5,6.1v16.2c0,1.6,0.2,2.6,0.5,3c0.5,0.5,1.2,0.8,2.3,0.8h0.9v0.7h-9.1v-0.7H12
	c1.1,0,1.9-0.3,2.4-1c0.3-0.4,0.4-1.4,0.4-2.8V4.1c-0.5-0.6-1.1-1.2-1.7-1.8c-0.5-0.4-1.1-0.6-1.7-0.8c-0.6-0.1-1.1-0.2-1.7-0.2
	L9.7,0.6z"/>
<path d="M51.2,0c3.4,0,6.3,1.3,8.8,3.9c2.5,2.6,3.7,5.8,3.7,9.7c0,4-1.3,7.3-3.8,9.9c-1.2,1.2-2.6,2.2-4.1,2.9c-1.6,0.7-3.2,1-4.9,1
	c-1.7,0-3.4-0.3-4.9-1c-1.6-0.7-3-1.6-4.2-2.9c-2.4-2.6-3.7-5.9-3.7-10c0-4.2,1.4-7.6,4.2-10.2C44.8,1.2,47.9-0.1,51.2,0z M50.8,1.4
	c-1.1,0-2.1,0.2-3.1,0.6c-1,0.5-1.8,1.1-2.5,2c-1.8,2.2-2.6,5.3-2.6,9.5c0,4.3,0.9,7.6,2.7,9.9c0.7,0.8,1.5,1.5,2.5,2s2,0.7,3.1,0.6
	c1.2,0,2.3-0.2,3.4-0.7c1.1-0.5,2-1.2,2.7-2.2c1.6-1.9,2.4-5,2.4-9.1c0-4.5-0.9-7.8-2.6-10.1C55.3,2.3,53.3,1.4,50.8,1.4L50.8,1.4z"
	/>
<path d="M100.3,0.6v0.7c-0.6,0-1.1,0.1-1.7,0.4c-0.5,0.3-0.9,0.8-1.2,1.4c-0.5,1-0.9,2.1-1.2,3.2l-7.3,21.2h-0.8l-6-16.8l-5.9,16.8
	h-0.7L67.8,5.7c-0.6-1.6-0.9-2.6-1.1-2.9c-0.2-0.5-0.6-0.8-1.1-1.1c-0.6-0.3-1.2-0.4-1.8-0.4V0.6h9.7v0.7h-0.5
	c-0.6,0-1.1,0.1-1.6,0.5c-0.2,0.1-0.3,0.3-0.4,0.5C71,2.5,71,2.7,71,2.9c0,0.5,0.3,1.5,0.8,3.1L77,20.8l4.3-12.5L80.5,6l-0.6-1.8
	c-0.2-0.6-0.5-1.2-0.9-1.7c-0.2-0.2-0.4-0.5-0.6-0.6c-0.3-0.2-0.6-0.4-1-0.5c-0.4-0.1-0.8-0.1-1.2-0.1V0.6h10.2v0.7h-0.7
	c-0.6,0-1.1,0.1-1.6,0.5c-0.2,0.2-0.3,0.4-0.4,0.6c-0.1,0.2-0.1,0.5-0.1,0.7c0,0.7,0.3,1.8,0.9,3.4l5,14.3l5-14.5
	c0.6-1.6,0.8-2.7,0.8-3.3c0-0.3-0.1-0.6-0.3-0.8c-0.2-0.2-0.4-0.4-0.7-0.5c-0.6-0.2-1.3-0.3-1.9-0.3V0.6H100.3z"/>
<path d="M112.3,18.1h-10.1l-1.8,4.1c-0.4,0.7-0.6,1.5-0.7,2.3c0,0.2,0.1,0.4,0.2,0.6c0.1,0.2,0.2,0.3,0.4,0.5
	c0.4,0.3,1.2,0.5,2.5,0.6v0.7h-8.2v-0.7c1.1-0.2,1.8-0.4,2.1-0.8c0.7-0.6,1.4-1.9,2.2-3.8L108.1,0h0.7l9.1,21.9
	c0.7,1.8,1.4,2.9,2,3.4c0.7,0.6,1.6,0.9,2.5,0.9v0.7H112v-0.7c1-0.1,1.7-0.2,2.1-0.5c0.2-0.1,0.3-0.3,0.4-0.5
	c0.1-0.2,0.1-0.4,0.1-0.6c0-0.6-0.3-1.5-0.8-2.7L112.3,18.1z M111.8,16.6L107.3,6l-4.6,10.6L111.8,16.6z"/>
<path d="M133,26.2v0.7h-11.2v-0.7h0.9c1.1,0,1.9-0.3,2.4-0.9c0.3-0.4,0.5-1.4,0.5-3v-17c0-1.3-0.1-2.2-0.3-2.6
	c-0.2-0.4-0.4-0.7-0.8-0.8c-0.5-0.3-1.2-0.5-1.8-0.5h-0.9V0.6H133v0.7h-0.9c-1.1,0-1.8,0.3-2.3,0.9c-0.3,0.4-0.5,1.4-0.5,3v17
	c0,1.3,0.1,2.2,0.2,2.6c0.2,0.4,0.5,0.7,0.8,0.8c0.5,0.3,1.1,0.5,1.8,0.5H133z"/>
</svg>
