<svg version="1.1" id="Calque_1" xmlns="http://www.w3.org/2000/svg" xmlns:xlink="http://www.w3.org/1999/xlink" x="0px" y="0px"
	 width="42.8px" height="32.6px" viewBox="0 0 42.8 32.6" style="enable-background:new 0 0 42.8 32.6;" xml:space="preserve">
<style type="text/css">
	.st0{fill:#12100B;}
</style>
<g>
	<path class="st0" d="M0,17.5C0,6.7,6.7,0,17.8,0c4.5,0,9,0.9,10.9,1.4l0,0.2c-1.5,4.5-2.5,8.7-3.1,14.1h-0.5
		c-1.5-9.3-4.9-14.2-9.9-14.2c-4.1,0-6.5,4.6-6.5,11.1c0,9.2,4.5,13.1,10.4,13.1c4.1,0,7.4-1.8,9.3-7.5l0.5,0.1
		c-0.7,9.5-5.4,14.2-13.8,14.2C6.6,32.6,0,27.2,0,17.5z"/>
	<path class="st0" d="M32.2,27.9c0-3.2,1.8-5.3,5.7-5.3c3,0,4.9,1.5,4.9,4.7c0,3.4-2,5.3-5.6,5.3C34.1,32.5,32.2,30.9,32.2,27.9z"/>
</g>
</svg>
