<?xml version="1.0" encoding="utf-8"?>
<!-- Generator: Adobe Illustrator 25.4.1, SVG Export Plug-In . SVG Version: 6.00 Build 0)  -->
<svg version="1.1" id="Calque_1" xmlns="http://www.w3.org/2000/svg" xmlns:xlink="http://www.w3.org/1999/xlink" x="0px" y="0px"
	 width="215.1px" height="63.3px" viewBox="0 0 215.1 63.3" style="enable-background:new 0 0 215.1 63.3;" xml:space="preserve">
<style type="text/css">
	.st0{fill:#FAF4B6;}
</style>
<g>
	<path class="st0" d="M0,22C0,11.2,6.7,4.5,17.8,4.5c4.5,0,9,1,10.9,1.4l0,0.2c-1.5,4.5-2.5,8.7-3.1,14.1h-0.5
		C23.7,11,20.3,6.1,15.3,6.1c-4.1,0-6.5,4.5-6.5,11.1c0,9.2,4.5,13.1,10.4,13.1c4.1,0,7.4-1.9,9.3-7.5l0.5,0.1
		c-0.7,9.5-5.4,14.2-13.8,14.2C6.6,37.1,0,31.7,0,22z"/>
	<path class="st0" d="M32.9,24.6c0-9,5.3-14,14.5-14c7.4,0,12.3,4,12.3,12.3c0,9.2-5.7,14.2-14.2,14.2C37.9,37.1,32.9,33,32.9,24.6z
		 M47.4,35.8c2.2,0,3.4-1.8,3.4-9c0-7.5-1.6-14.9-5.5-14.9c-2.2,0-3.3,1.6-3.3,8.9C42,28.3,43.5,35.8,47.4,35.8z"/>
	<path class="st0" d="M81.2,31.8H81c-2.5,2.8-5.6,5.4-9,5.4c-5.4,0-6.6-3.3-6.6-8.1c0-3.9,0.1-6.3,0.1-8.7c0-2.3-0.2-3.8-1.4-4.9
		l-0.8-1v-0.2c3.5-0.4,8-1.9,10.9-4.7l0.2,0c-0.4,4-0.6,8.2-0.6,14.2c0,6.5,0.9,8.5,4,8.5c0.8,0,1.8-0.2,2.8-0.9
		c0.1-2.6,0.2-5.2,0.2-8.1c0-5.3-0.4-6.9-1.8-7.9l-0.8-0.9v-0.2c3.7-0.3,8.3-1.9,11.2-4.7l0.2,0c-0.4,4-0.6,8.4-0.6,13.7
		c0,8.7,0.5,9.8,2,10.6l0.8,0.3v0.2c-4.1,0.4-8.2,1.9-10.7,3.4l-0.2,0C81.1,35.9,81.2,33.7,81.2,31.8z"/>
	<path class="st0" d="M95.4,36.4l0.4-0.4c1.2-1.3,1.5-3,1.5-11.2c0-6.2-0.1-7.7-1.5-9l-0.8-0.9v-0.1c4-0.5,8.1-2.7,10.2-5.2l0.2,0
		c0,1.6-0.2,3.7-0.3,7h0.2c2-3.7,4.8-6,7.1-6c2.3,0,4.1,2,4.1,4c0,2.8-2.9,5.4-4.9,5.4c-2.2,0-3-4-4.3-4c-0.5,0-1,0.3-1.5,1
		c-0.1,1.9-0.2,4.4-0.2,7.2c0,7.4,0.2,10.3,3.1,11.8l0.8,0.3v0.2H95.4V36.4z"/>
	<path class="st0" d="M121.2,20.7c0-12.8,0-13.4-1.5-14.8L119,5.1V4.9c4-0.5,8.8-2.3,11.1-4.9l0.2,0c-0.5,4.1-0.8,8.7-0.9,15.6h0.2
		c2.2-2.5,4.9-5,8.3-5c4.7,0,8.5,4.3,8.5,11.8c0,9.8-6,14.8-14.4,14.8c-4.2,0-6.9-1.1-8.9-3.2l-2.3,3.4l-0.2,0
		C120.9,33.6,121.2,26.5,121.2,20.7z M133.9,35.8c2.3,0,3.5-1.9,3.5-10c0-7-1.8-10.4-5-10.4c-1,0-1.9,0.2-2.8,0.9
		c-0.1,1.6-0.2,3.2-0.2,5.8C129.5,30.8,130.8,35.8,133.9,35.8z"/>
	<path class="st0" d="M150.9,24.8c0-8.9,5.6-14.2,13.8-14.2c7.1,0,10.7,4.5,9.8,11.2l-15.3,0.7c0.5,5.8,3.2,8.7,7.5,8.7
		c2.9,0,5.7-1.8,7-5.3L174,26c-0.6,7.4-4.5,11.2-10.8,11.2C156,37.1,150.9,32.4,150.9,24.8z M159.2,21.4l5.6-0.3
		c1.3,0,1.8-0.5,1.8-1.8c0-4.5-1.4-7.4-3.9-7.4c-2,0-3.6,3-3.6,8.1C159.1,20.5,159.1,20.9,159.2,21.4z"/>
	<path class="st0" d="M179.1,35.2l-0.1-0.3c0.5-2.5,1-5,1.3-8.5h0.4c1.4,5.7,6.8,9.1,11.2,9.1c2.2,0,3-1,3-2.4
		c0-4.8-15.5-4.8-15.5-13.2c0-5.8,4.7-9.2,12.1-9.2c3.7,0,6.7,0.6,8.7,1.2l0.1,0.2c-0.9,2.5-1.6,5.1-2.1,8.6h-0.3
		c-2-5.2-5.5-8.6-9.2-8.6c-2.2,0-3.3,1.2-3.3,2.6c0,6.1,15.5,5.1,15.5,13.5c0,5.2-4.1,8.9-12.2,8.9C184.1,37.1,180.6,36,179.1,35.2z
		"/>
	<path class="st0" d="M204.6,32.4c0-3.2,1.8-5.3,5.7-5.3c3,0,4.9,1.5,4.9,4.6c0,3.4-2,5.3-5.6,5.3C206.5,37,204.6,35.4,204.6,32.4z"
		/>
</g>
<g>
	<path d="M1.1,50.4h1.2L7,61.6h0l4.7-11.2h1.2V63H12V51.7h0L7.2,63H6.8L2,51.7h0V63H1.1V50.4z"/>
	<path d="M15.7,50.6h1.2v1.2h-1.2V50.6z M15.8,53.5h0.8V63h-0.8V53.5z"/>
	<path d="M19.3,53.5h0.8v1.4h0c0.6-1,1.8-1.6,3.1-1.6c2.2,0,3.5,1.3,3.5,3.5V63h-0.8v-6.2c0-1.8-1-2.9-2.8-2.9
		c-0.9,0-1.6,0.3-2.2,0.8c-0.6,0.5-0.8,1.2-0.8,2.1V63h-0.8V53.5z"/>
	<path d="M33.2,53.2c2.1,0,3.6,1.3,4,3.4l-0.8,0.1C36.1,55,34.9,54,33.2,54c-2.1,0-3.5,1.8-3.5,4.3s1.4,4.3,3.5,4.3
		c1.7,0,2.9-1,3.2-2.8l0.8,0.1c-0.4,2.1-1.9,3.4-4,3.4c-2.5,0-4.3-2.1-4.3-5S30.7,53.2,33.2,53.2z"/>
	<path d="M43.3,53.2c2.5,0,4.2,1.9,4.2,4.9v0.3h-7.6c0,1.2,0.3,2.2,0.9,3c0.6,0.8,1.5,1.1,2.5,1.1c1.5,0,2.6-0.7,3.3-2.2l0.7,0.4
		c-0.7,1.7-2.1,2.6-3.9,2.6c-2.6,0-4.3-2-4.3-5C39,55.4,40.7,53.2,43.3,53.2z M46.7,57.8c0-2.3-1.4-3.8-3.4-3.8
		c-2,0-3.3,1.7-3.4,3.8H46.7z"/>
	<path d="M49.6,53.5h0.8v6.2c0,1.9,1,2.9,2.8,2.9c0.8,0,1.5-0.3,2.1-0.8c0.6-0.6,0.8-1.3,0.8-2.1v-6.2h0.8V63h-0.8v-1.4h0
		c-0.6,1-1.7,1.6-3.1,1.6c-2.1,0-3.4-1.3-3.4-3.5V53.5z"/>
	<path d="M59.5,53.5h0.8v1h0c0.4-0.7,1-1.2,2-1.2c0.3,0,0.5,0,0.7,0.1l-0.2,0.8c-0.3-0.1-0.5-0.1-0.7-0.1c-1.2,0-1.9,0.9-1.9,2.6V63
		h-0.8V53.5z"/>
	<path d="M79.2,62.3l-1.1-1c-0.8,1.3-2.2,2-4.2,2c-2.8,0-4.4-1.4-4.4-3.7c0-1.4,0.9-2.7,2.4-3.7c-1-1-1.4-1.8-1.4-2.8
		c0-1.7,1.4-3,3.4-3c2,0,3.3,1.1,3.6,3l-1.7,0.3c-0.2-1.1-0.8-1.6-1.8-1.6c-1,0-1.7,0.6-1.7,1.4c0,0.6,0.2,1,1,1.7l3.7,3.2v-2.4h1.7
		v3.8l1.6,1.4L79.2,62.3z M73.1,57c-1.2,0.7-1.9,1.5-1.9,2.5c0,1.3,1,2.1,2.7,2.1c1.4,0,2.4-0.5,2.8-1.5L73.1,57z"/>
	<path d="M87.7,61.7V63h-0.8V49.9h0.8v4.9h0c0.6-1,1.8-1.6,3.1-1.6c2.4,0,4.2,2.1,4.2,5c0,3-1.7,5.1-4.2,5.1
		C89.5,63.3,88.4,62.7,87.7,61.7L87.7,61.7z M90.9,54c-1.7,0-3.2,1.3-3.2,2.9v2.8c0,1.6,1.4,2.9,3.1,2.9c2.1,0,3.5-1.7,3.5-4.3
		C94.3,55.7,92.9,54,90.9,54z"/>
	<path d="M97.2,50.6h1.2v1.2h-1.2V50.6z M97.4,53.5h0.8V63h-0.8V53.5z"/>
	<path d="M104.7,53.2c2.5,0,4.2,1.9,4.2,4.9v0.3h-7.6c0,1.2,0.3,2.2,0.9,3c0.6,0.8,1.5,1.1,2.5,1.1c1.5,0,2.6-0.7,3.3-2.2l0.7,0.4
		c-0.7,1.7-2.1,2.6-3.9,2.6c-2.6,0-4.3-2-4.3-5C100.5,55.4,102.2,53.2,104.7,53.2z M108.1,57.8c0-2.3-1.4-3.8-3.4-3.8
		c-2,0-3.3,1.7-3.4,3.8H108.1z"/>
	<path d="M111.2,53.5h0.8v1.4h0c0.6-1,1.8-1.6,3.1-1.6c2.2,0,3.5,1.3,3.5,3.5V63h-0.8v-6.2c0-1.8-1-2.9-2.8-2.9
		c-0.9,0-1.6,0.3-2.2,0.8c-0.6,0.5-0.8,1.2-0.8,2.1V63h-0.8V53.5z"/>
	<path d="M121,57.3h4.3v0.8H121V57.3z"/>
	<path d="M131.6,53.2c2.5,0,4.2,1.9,4.2,4.9v0.3h-7.6c0,1.2,0.3,2.2,0.9,3c0.6,0.8,1.5,1.1,2.5,1.1c1.5,0,2.6-0.7,3.3-2.2l0.7,0.4
		c-0.7,1.7-2.1,2.6-3.9,2.6c-2.6,0-4.3-2-4.3-5C127.3,55.4,129,53.2,131.6,53.2z M135,57.8c0-2.3-1.4-3.8-3.4-3.8
		c-2,0-3.3,1.7-3.4,3.8H135z M132.8,52.5l-1.3-1.6l-1.3,1.6l-0.5-0.4l1.2-1.5h1.2l1.2,1.5L132.8,52.5z"/>
	<path d="M139,54.2v7.1c0,0.7,0.3,1,1,1h0.7V63H140c-1.3,0-1.8-0.5-1.8-1.7v-7.1h-1.4v-0.7h1.4v-2h0.8v2h2.3v0.7H139z"/>
	<path d="M143.2,53.5h0.8v1h0c0.4-0.7,1-1.2,2-1.2c0.3,0,0.5,0,0.7,0.1l-0.2,0.8c-0.3-0.1-0.5-0.1-0.7-0.1c-1.2,0-1.9,0.9-1.9,2.6
		V63h-0.8V53.5z"/>
	<path d="M151.8,53.2c2.5,0,4.2,1.9,4.2,4.9v0.3h-7.6c0,1.2,0.3,2.2,0.9,3c0.6,0.8,1.5,1.1,2.5,1.1c1.5,0,2.6-0.7,3.3-2.2l0.7,0.4
		c-0.7,1.7-2.1,2.6-3.9,2.6c-2.6,0-4.3-2-4.3-5C147.5,55.4,149.2,53.2,151.8,53.2z M155.2,57.8c0-2.3-1.4-3.8-3.4-3.8
		c-2,0-3.3,1.7-3.4,3.8H155.2z"/>
</g>
</svg>
