<?xml version="1.0" encoding="utf-8"?>
<!-- Generator: Adobe Illustrator 25.4.1, SVG Export Plug-In . SVG Version: 6.00 Build 0)  -->
<svg version="1.1" id="Calque_1" xmlns="http://www.w3.org/2000/svg" xmlns:xlink="http://www.w3.org/1999/xlink" x="0px" y="0px"
	 width="215.2px" height="37.8px" viewBox="0 0 215.2 37.8" style="enable-background:new 0 0 215.2 37.8;" xml:space="preserve">
<path d="M0,22C0,11.2,6.7,4.5,17.8,4.5c4.5,0,9,1,10.9,1.4v0.2c-1.5,4.5-2.5,8.7-3.1,14.1h-0.5C23.7,11,20.3,6.1,15.3,6.1
	c-4.1,0-6.5,4.5-6.5,11.1c0,9.2,4.5,13.1,10.4,13.1c4.1,0,7.4-1.9,9.3-7.5l0.5,0.1c-0.7,9.5-5.4,14.2-13.8,14.2
	C6.6,37.1,0,31.7,0,22z"/>
<path d="M32.9,24.6c0-9,5.3-14,14.5-14c7.4,0,12.3,4,12.3,12.3c0,9.2-5.7,14.2-14.2,14.2C37.9,37.1,32.9,33,32.9,24.6z M47.4,35.8
	c2.2,0,3.4-1.8,3.4-9c0-7.5-1.6-14.9-5.5-14.9c-2.2,0-3.3,1.6-3.3,8.9C42,28.3,43.5,35.8,47.4,35.8z"/>
<path d="M81.2,31.8H81c-2.5,2.8-5.6,5.4-9,5.4c-5.4,0-6.6-3.3-6.6-8.1c0-3.9,0.1-6.3,0.1-8.7c0-2.3-0.2-3.8-1.4-4.9l-0.8-1v-0.2
	c3.5-0.4,8-1.9,10.9-4.7h0.2c-0.4,4-0.6,8.2-0.6,14.2c0,6.5,0.9,8.5,4,8.5c0.8,0,1.8-0.2,2.8-0.9c0.1-2.6,0.2-5.2,0.2-8.1
	c0-5.3-0.4-6.9-1.8-7.9l-0.8-0.9v-0.2c3.7-0.3,8.3-1.9,11.2-4.7h0.2c-0.4,4-0.6,8.4-0.6,13.7c0,8.7,0.5,9.8,2,10.6l0.8,0.3v0.2
	c-4.1,0.4-8.2,1.9-10.7,3.4h-0.2C81.1,35.9,81.2,33.7,81.2,31.8z"/>
<path d="M95.4,36.4l0.4-0.4c1.2-1.3,1.5-3,1.5-11.2c0-6.2-0.1-7.7-1.5-9L95,14.9v-0.1c4-0.5,8.1-2.7,10.2-5.2h0.2
	c0,1.6-0.2,3.7-0.3,7h0.2c2-3.7,4.8-6,7.1-6c2.3,0,4.1,2,4.1,4c0,2.8-2.9,5.4-4.9,5.4c-2.2,0-3-4-4.3-4c-0.5,0-1,0.3-1.5,1
	c-0.1,1.9-0.2,4.4-0.2,7.2c0,7.4,0.2,10.3,3.1,11.8l0.8,0.3v0.2L95.4,36.4L95.4,36.4z"/>
<path d="M121.2,20.7c0-12.8,0-13.4-1.5-14.8L119,5.1V4.9c4-0.5,8.8-2.3,11.1-4.9h0.2c-0.5,4.1-0.8,8.7-0.9,15.6h0.2
	c2.2-2.5,4.9-5,8.3-5c4.7,0,8.5,4.3,8.5,11.8c0,9.8-6,14.8-14.4,14.8c-4.2,0-6.9-1.1-8.9-3.2l-2.3,3.4h-0.2
	C120.9,33.6,121.2,26.5,121.2,20.7z M133.9,35.8c2.3,0,3.5-1.9,3.5-10c0-7-1.8-10.4-5-10.4c-1,0-1.9,0.2-2.8,0.9
	c-0.1,1.6-0.2,3.2-0.2,5.8C129.5,30.8,130.8,35.8,133.9,35.8z"/>
<path d="M150.9,24.8c0-8.9,5.6-14.2,13.8-14.2c7.1,0,10.7,4.5,9.8,11.2l-15.3,0.7c0.5,5.8,3.2,8.7,7.5,8.7c2.9,0,5.7-1.8,7-5.3
	L174,26c-0.6,7.4-4.5,11.2-10.8,11.2C156,37.1,150.9,32.4,150.9,24.8z M159.2,21.4l5.6-0.3c1.3,0,1.8-0.5,1.8-1.8
	c0-4.5-1.4-7.4-3.9-7.4c-2,0-3.6,3-3.6,8.1C159.1,20.5,159.1,20.9,159.2,21.4z"/>
<path d="M179.1,35.2l-0.1-0.3c0.5-2.5,1-5,1.3-8.5h0.4c1.4,5.7,6.8,9.1,11.2,9.1c2.2,0,3-1,3-2.4c0-4.8-15.5-4.8-15.5-13.2
	c0-5.8,4.7-9.2,12.1-9.2c3.7,0,6.7,0.6,8.7,1.2l0.1,0.2c-0.9,2.5-1.6,5.1-2.1,8.6h-0.3c-2-5.2-5.5-8.6-9.2-8.6
	c-2.2,0-3.3,1.2-3.3,2.6c0,6.1,15.5,5.1,15.5,13.5c0,5.2-4.1,8.9-12.2,8.9C184.1,37.1,180.6,36,179.1,35.2z"/>
<path d="M204.6,32.4c0-3.2,1.8-5.3,5.7-5.3c3,0,4.9,1.5,4.9,4.6c0,3.4-2,5.3-5.6,5.3C206.5,37,204.6,35.4,204.6,32.4z"/>
</svg>
