<?xml version="1.0" encoding="utf-8"?>
<!-- Generator: Adobe Illustrator 25.4.1, SVG Export Plug-In . SVG Version: 6.00 Build 0)  -->
<svg version="1.1" id="Calque_1" xmlns="http://www.w3.org/2000/svg" xmlns:xlink="http://www.w3.org/1999/xlink" x="0px" y="0px"
	 width="230.3px" height="230.3px" viewBox="0 0 230.3 230.3" style="enable-background:new 0 0 230.3 230.3;" xml:space="preserve"
	>
<style type="text/css">
	.st0{fill:#12100B;}
</style>
<g>
	<path class="st0" d="M4.5,115.7c0-3.2,2.1-5.5,4.8-5.8l0.6,3.9c-1.1,0.2-1.8,0.9-1.7,2c0,1.7,1.7,2.9,4,2.9c1.4,0,2.4-0.9,2.3-2.1
		s-0.7-2-2.2-2.5l1.2-3.7c2.9,0.9,4.6,3,4.6,6.2c0.1,3.5-2.5,6.1-6,6.1C8,122.7,4.5,119.6,4.5,115.7z"/>
	<path class="st0" d="M5.6,99.2c0.5-3.5,3.4-5.7,6.8-5.3c4.2,0.5,7.2,4.2,6.5,8.1c-0.5,3.5-3.4,5.7-6.8,5.3
		C8,106.8,5,103.2,5.6,99.2z M9.2,99.9c-0.2,1.7,1.2,3.2,3.5,3.5c1.4,0.2,2.5-0.5,2.7-1.9c0.2-1.7-1.2-3.2-3.5-3.5
		C10.5,97.8,9.4,98.5,9.2,99.9z"/>
	<path class="st0" d="M15.4,91.9l-7.3-3.6l1.2-3.9l7,3.6c0.2,0.1,0.3,0.1,0.4,0.2c0.8,0.2,1.3-0.1,1.6-1.1c0.4-1.3-0.2-2.4-1.4-3
		l-6.6-3.3l1.2-3.9l11.5,5.8L22,86.3l-1.1-0.6l0,0c0.7,1.2,0.9,2.4,0.5,3.8c-0.7,2.5-2.6,3.4-4.9,2.7C16.1,92.2,15.7,92,15.4,91.9z"
		/>
	<path class="st0" d="M13.4,72.6l1.5-3.5l1,0.6l0,0c-0.6-1.1-0.5-2.2,0-3.4c0.2-0.4,0.4-0.8,0.8-1.2l3,2.3c-0.3,0.4-0.5,0.8-0.6,1.1
		c-0.7,1.6-0.2,3,1.5,4.2l5.2,3.5l-1.6,3.7L13.4,72.6z"/>
	<path class="st0" d="M29.3,66.4l0.9,0.8l-2,3.2L14.9,58.7l2.1-3.4l4.1,3.7l0,0c-0.1-1.1,0.1-2.1,0.7-3.1c1.6-2.6,4.6-3,7.6-1.2
		c3.6,2.1,4.9,6.5,2.9,9.6C31.6,65.5,30.5,66.2,29.3,66.4L29.3,66.4z M24.3,58.8c-0.7,1.1-0.5,2.5,0.4,3.3l2,1.8
		c0.9,0.1,1.9-0.3,2.4-1.2c0.9-1.5,0.3-3.4-1.5-4.5C26.2,57.3,25,57.5,24.3,58.8z"/>
	<path class="st0" d="M35.1,50.7c1.1,0.9,2.4,0.9,3.4-0.3c0.7-0.9,1-2.1,0.9-3.6l3.3-0.1c0.1,2.3-0.5,4.2-1.8,5.9
		c-2.4,2.8-5.8,3.1-8.5,0.8c-3.3-2.7-3.9-7.3-1.3-10.2c2.2-2.7,5.7-2.9,8.4-0.6c0.5,0.4,1,0.9,1.3,1.4L35.1,50.7z M36.5,45
		c-1-0.9-2.2-0.7-3,0.2c-0.9,1-0.9,2.4-0.2,3.5L36.5,45z"/>
	<path class="st0" d="M44.6,40.8c1.3,0.9,2.4,0.8,3.5-0.2c0.7-0.6,0.9-1.3,0.6-1.7c-0.4-0.4-1-0.4-2.6,0.3c-2.8,1.3-4.5,1.2-5.8-0.3
		c-1.5-1.7-1.1-4.4,1.1-6.4c2.1-1.9,4.7-2.2,6.8-0.7l-2,2.9c-1-0.6-1.8-0.5-2.6,0.2c-0.6,0.5-0.8,1.1-0.5,1.5
		c0.3,0.3,0.8,0.3,2.2-0.4c3-1.3,4.8-1.3,6.2,0.3c1.6,1.8,1.1,4.5-1.2,6.5c-2.5,2.2-5.3,2.6-7.6,0.9L44.6,40.8z"/>
	<path class="st0" d="M54,33.7l3.6-2.6l1.9,3.9l-3.6,2.6L54,33.7z"/>
	<path class="st0" d="M62.6,17.7c2.6-1.4,5.6-0.8,7.1,1.6l-2.7,2c-0.8-1-1.8-1.3-2.8-0.7c-0.9,0.5-1.4,1.2-1.5,2.3
		c-0.2,1,0.1,2.1,0.7,3.2c0.8,1.4,2,1.9,3.2,1.2s1.6-1.7,1.3-3.5l3.4-0.6c0.6,3.1-0.6,5.4-3.2,6.9c-2.9,1.6-6.2,0.6-7.8-2.3
		C58.2,24,59.2,19.5,62.6,17.7z"/>
	<path class="st0" d="M77.4,11.1c3.2-1.2,6.4,0.3,7.5,3.4c1.6,4-0.2,8.3-3.9,9.6c-3.2,1.2-6.4-0.4-7.5-3.4
		C71.9,16.7,73.7,12.4,77.4,11.1z M78.4,14.2c-1.8,0.6-2.5,2.9-1.6,5.4c0.6,1.5,1.8,2.2,3.2,1.6c1.8-0.6,2.5-3,1.6-5.4
		C81.1,14.3,79.8,13.6,78.4,14.2z"/>
	<path class="st0" d="M88.3,16.3l-0.2-8.1l3.4-0.7l0.2,7.9c0,0.3,0,0.4,0.1,0.5c0.2,1,0.9,1.4,2,1.1c1.4-0.3,2.2-1.5,2.2-3l-0.2-7.5
		l3.4-0.7l0.4,12.9l-3.3,0.7l0-1.1l0,0c-0.6,1.1-1.6,1.9-3,2.1c-2.5,0.5-4.4-0.7-4.8-3C88.4,17,88.3,16.6,88.3,16.3z"/>
	<path class="st0" d="M103.9,5.4l3.3-0.3l-0.1,1.2l0,0c0.6-1,1.5-1.5,2.8-1.6c0.5,0,1,0,1.6,0.1L111,8.1C110.6,8,110.1,8,109.6,8
		c-1.6,0.1-2.7,1.3-2.8,3.2l-0.6,6.7l-3.5,0.3L103.9,5.4z"/>
	<path class="st0" d="M116.1,16.3l-0.2,1.2l-3.4-0.1L116.3,0l3.5,0.2l-1.2,5.4l0,0c0.8-0.6,2-0.9,3-0.8c3,0.1,4.9,2.6,4.8,6
		c-0.1,4.2-3.2,7.5-7,7.3C118.1,17.9,116.9,17.3,116.1,16.3L116.1,16.3z M120.7,7.8c-1.5-0.1-2.8,0.9-3.1,2.4L117,13
		c0.3,1,1.2,1.8,2.3,1.8c2,0.1,3.6-1.7,3.7-4.2C123,8.9,122.2,7.9,120.7,7.8z"/>
	<path class="st0" d="M132.4,13.6c-0.4,1.7,0.3,2.9,2,3.2c1.1,0.2,2.2-0.1,3.5-1.2l1.8,2.5c-1.7,1.4-3.9,2-6.1,1.6
		c-3.4-0.7-5.3-3.5-4.6-6.8c0.8-4.2,4.4-6.9,8.2-6.2c3.3,0.7,5.1,3.4,4.4,6.9c-0.1,0.7-0.3,1.3-0.5,1.8L132.4,13.6z M138.6,12.3
		c0.3-1.5-0.5-2.5-1.9-2.8c-1.4-0.3-2.8,0.4-3.6,1.7L138.6,12.3z"/>
	<path class="st0" d="M145.8,17.3c-0.2,1.7,0.4,2.7,1.9,3.2c1,0.4,1.8,0.2,2.1-0.4c0.2-0.7-0.2-1.3-1.7-2.5c-2.4-1.8-3.1-3.2-2.4-5
		c0.7-2,3.3-3,5.8-2.1c1.3,0.4,2.2,1.2,2.9,2.1c0.7,1,1,2.1,0.8,3.3l-3.2-0.3c0.1-1.2-0.4-2-1.5-2.4c-0.9-0.3-1.6-0.1-1.8,0.4
		c-0.2,0.5,0.2,0.9,1.5,1.9c2.6,2,3.3,3.6,2.7,5.5c-0.8,2.2-3.3,3.1-6.1,2.1c-3.1-1.1-4.6-3.3-4.2-6.2L145.8,17.3z"/>
	<path class="st0" d="M156.4,22.5l3.5,1.7l-2.2,3.1l-3.5-1.7L156.4,22.5z"/>
	<path class="st0" d="M174.6,21.7c2.5,1.6,3.3,4.4,2,6.8l-2.6-1.2c0.6-1.4,0.3-2.6-0.9-3.4c-1.9-1.2-4.4-0.2-5.9,2.2
		c-1,1.6-0.8,3,0.7,3.9c1.3,0.8,2.7,0.7,4.2-0.5l1.8,2.3c-2.4,1.9-5,2-7.4,0.6c-2.8-1.8-3.5-4.9-1.7-7.8
		C167,21,171.4,19.7,174.6,21.7z"/>
	<path class="st0" d="M187.5,31.4c2.6,2.2,2.7,5.6,0.6,8c-2.7,3.3-7.4,4-10.3,1.4c-2.6-2.2-2.7-5.6-0.6-8
		C180,29.5,184.7,28.8,187.5,31.4z M185.7,33.4c-1.6-1.4-4.4-0.9-6.2,1.3c-1.2,1.4-1.1,3,0.2,4.2c1.6,1.4,4.4,0.8,6.2-1.3
		C187.1,36.1,187.1,34.5,185.7,33.4z"/>
	<path class="st0" d="M188.4,43.5l7-4.2l1.9,2.2l-6.9,4.1c-0.2,0.1-0.4,0.2-0.6,0.4c-0.9,0.8-0.9,1.7,0,2.8c1.1,1.2,2.8,1.4,4.2,0.5
		l6.6-4l1.9,2.2l-11.1,6.7l-1.8-2.1l1-0.6l0,0c-1.3,0-2.5-0.6-3.3-1.6c-1.7-2-1.5-4.2,0.3-5.8C187.9,43.9,188.1,43.7,188.4,43.5z"/>
	<path class="st0" d="M205.4,51.6l1.6,2.3l-1,0.4l0,0c1.1,0.1,2.1,0.6,2.7,1.6c0.3,0.4,0.5,0.9,0.7,1.4l-2.7,1
		c-0.1-0.4-0.4-0.8-0.6-1.2c-0.9-1.3-2.4-1.6-4.3-0.8l-6.5,2.9l-1.6-2.4L205.4,51.6z"/>
	<path class="st0" d="M201.5,66.7l-1.2,0.4l-1.3-2.6l17-5.2l1.3,2.6l-5.3,1.6l0,0c1,0.4,1.8,1.3,2.4,2.4c1.4,2.6,0.2,5.5-2.8,7.1
		c-3.8,2-8.3,0.9-9.9-2.4C201,69.3,201,67.9,201.5,66.7L201.5,66.7z M211.7,66.6c-0.8-1.5-2.4-2.3-4.1-1.8l-3.2,1
		c-0.9,0.8-1.1,2.2-0.5,3.3c1,2,3.8,2.5,6.3,1.2C211.9,69.6,212.5,68.1,211.7,66.6z"/>
	<path class="st0" d="M214.9,88.2l-2.9-8.8l-0.1,0c-1.9,0.5-2.7,1.9-2.1,3.8c0.4,1.2,1.3,2,3.1,2.6l-0.9,2.5
		c-2.2-0.7-3.9-2.3-4.6-4.3c-1.1-3.2,0.3-6.1,3.6-7.2c4.1-1.4,8.4,0.3,9.5,4c1,3.1-0.5,6-3.8,7.1C216,88,215.4,88.1,214.9,88.2z
		 M214.1,79l2,6c1.8-0.6,2.4-2,1.9-3.5C217.5,79.9,215.9,78.9,214.1,79z"/>
	<path class="st0" d="M215.3,93c-1.8,0.7-2.4,1.8-2.1,3.6c0.2,1.3,1,2.1,1.7,1.9c0.8-0.2,1.2-0.9,1.5-3c0.3-3,1.2-4.2,3-4.6
		c2.1-0.4,4.1,1.3,4.6,3.9c0.5,2.6-0.6,4.9-2.8,5.8l-1.1-2.5c1.3-0.6,1.7-1.5,1.5-2.8c-0.2-1.1-0.8-1.7-1.6-1.6
		c-0.6,0.1-0.9,0.7-1.1,2.5c-0.5,3.3-1.4,4.7-3.4,5c-2.2,0.4-4.2-1.3-4.7-4.2c-0.6-3.2,0.6-5.5,3.4-6.5L215.3,93z"/>
	<path class="st0" d="M215.7,105l0.3,3.5l-3.4-0.3l-0.3-3.5L215.7,105z"/>
	<path class="st0" d="M225.8,120.1c-0.1,3-2,5-4.9,5.1l-0.2-2.3c1.8-0.1,2.9-1.2,2.9-2.9c0.1-2.4-2.3-4.3-5.4-4.5
		c-2.1-0.1-3.5,1-3.6,3c-0.1,1.7,0.9,3,2.9,3.8l-0.9,2.2c-2.7-1.1-4.2-3.3-4.1-6.1c0.1-3.3,2.5-5.4,5.9-5.3
		C222.5,113.3,226,116.4,225.8,120.1z"/>
	<path class="st0" d="M223.9,136.3c-0.6,3.3-3.3,5-6.6,4.4c-4.2-0.7-7.2-4.4-6.4-8.1c0.6-3.3,3.3-5,6.6-4.4
		C221.7,128.9,224.6,132.6,223.9,136.3z M221.7,135.8c0.5-2.4-1.6-4.7-4.7-5.3c-2.1-0.4-3.6,0.6-4,2.5c-0.5,2.4,1.6,4.8,4.7,5.3
		C219.8,138.7,221.3,137.8,221.7,135.8z"/>
	<path class="st0" d="M213.7,143.2l7.2,4l-0.8,2.2l-7.1-3.9c-0.3-0.1-0.5-0.2-0.7-0.3c-1.3-0.5-2.2,0-2.7,1.5
		c-0.6,1.7,0.2,3.4,1.8,4.4l6.9,3.8l-0.8,2.2l-11.3-6.3l0.8-2.2l1,0.6l0,0c-0.6-1.1-0.7-2.5-0.3-3.7c0.8-2.4,2.9-3.4,5.1-2.7
		C213.1,142.9,213.4,143,213.7,143.2z"/>
	<path class="st0" d="M215.2,161.8l-1,2l-0.9-0.7l0,0c0.5,1,0.5,2-0.1,3.1c-0.2,0.4-0.5,0.8-0.8,1.2l-1.9-1.5
		c0.3-0.4,0.6-0.8,0.7-1.1c0.7-1.5,0.2-2.9-1.6-4.2l-6-4.3l1-2.1L215.2,161.8z"/>
	<path class="st0" d="M200.6,165.1l-1-0.9l1.3-2l13.1,12.1l-1.3,2l-4.2-3.9l0,0c0.2,1.2-0.2,2.4-0.9,3.6c-1.6,2.5-4.7,2.9-7.5,1.1
		c-3.6-2.2-5-6.8-2.9-9.8C198,166.1,199.4,165.2,200.6,165.1L200.6,165.1z M206,174.5c0.5-0.8,0.7-1.6,0.6-2.6
		c-0.1-0.9-0.4-1.6-1.1-2.2l-2.9-2.7c-1.2-0.4-2.7,0.2-3.5,1.5c-1.3,2-0.3,5,2.3,6.7C203.2,176.4,204.9,176.1,206,174.5z"/>
	<path class="st0" d="M188.8,187.8l6.3-7.1c-0.1-0.1-0.2-0.2-0.4-0.4c-1.7-1.5-3.3-1.4-4.7,0.2c-0.9,1-1.1,2.3-0.7,4.3l-2.2,0.4
		c-0.6-2.3-0.1-4.5,1.3-6.1c2.3-2.6,5.2-2.7,7.9-0.4c3.3,2.8,4,7.4,1.5,10.1c-2.1,2.4-5.3,2.5-7.8,0.3
		C189.7,188.7,189.3,188.3,188.8,187.8z M191.6,187.4c1.7,1.5,3.4,1.4,4.7,0c1.2-1.4,1.2-3.5,0-5.3L191.6,187.4z"/>
	<path class="st0" d="M184.8,190.3c-1.7-1.3-3-1.3-4.5,0c-1.2,1-1.5,2.2-0.9,3c0.6,0.7,1.5,0.7,3.6-0.2c2.8-1.2,4.3-1.1,5.4,0.2
		c1.4,1.6,0.9,4.1-1,5.8c-2,1.8-4.4,1.9-6.4,0.5l1.4-1.9c1.3,0.9,2.4,0.8,3.6-0.2c1-0.8,1.2-1.9,0.7-2.6c-0.5-0.6-1.3-0.5-3.2,0.3
		c-3,1.2-4.7,1.1-6-0.4c-1.4-1.7-0.9-4.2,1.3-6.1c2.4-2.1,5.1-2.2,7.3-0.2L184.8,190.3z"/>
	<path class="st0" d="M174.3,196.7l-2.6,1.8l-1.3-2.8l2.6-1.8L174.3,196.7z"/>
	<path class="st0" d="M166.5,213.2c-2.5,1.4-5.1,0.6-6.6-1.8l0.9-0.6c1.3,2,3.2,2.6,5.2,1.5c2.7-1.4,3.4-5.2,1.6-8.6
		c-1.3-2.4-3.6-3.3-5.7-2.2c-1.9,1-2.7,3.1-2.5,5.5l-1,0.1c-0.3-2.8,0.8-5.3,3.1-6.5c2.7-1.5,5.6-0.4,7.2,2.5
		C170.6,207,169.7,211.6,166.5,213.2z"/>
	<path class="st0" d="M151.4,219.7c-3,1.1-5.7-0.4-6.8-3.5c-1.5-4.1,0.2-8.4,3.7-9.6c3-1,5.7,0.4,6.8,3.6
		C156.6,214.2,154.9,218.6,151.4,219.7z M147.8,218.6c1,0.5,2.1,0.6,3.3,0.2c3-1,4.2-4.7,3-8.3c-0.5-1.3-1.2-2.2-2.2-2.8
		c-1-0.5-2.1-0.6-3.3-0.2c-3,1-4.3,4.7-3,8.3C146.1,217.1,146.8,218,147.8,218.6z"/>
	<path class="st0" d="M139.9,214.1l0.2,8.5l-1.1,0.2l-0.2-8.4c0-0.3,0-0.7-0.1-1c-0.3-1.8-1.6-2.6-3.6-2.2c-1.1,0.2-2,0.8-2.7,1.6
		c-0.7,0.9-1,1.9-1,3.1l0.2,8.3l-1.1,0.2l-0.2-12.9l1-0.2l0,1.7l0,0c0.7-1.4,2.1-2.4,3.7-2.7c2.5-0.5,4.3,0.7,4.7,2.9
		C139.9,213.3,139.9,213.7,139.9,214.1z"/>
	<path class="st0" d="M124.9,225l-1,0.1l0.2-1.4l0,0c-0.5,1-1.5,1.7-2.7,1.8c-0.4,0-0.7,0-1,0l0.2-1.1c0.4,0,0.7,0.1,0.9,0
		c1.7-0.1,2.7-1.5,2.9-3.8l0.8-8.4l1.1-0.1L124.9,225z"/>
	<path class="st0" d="M117,214.6l0.4-1.8l1.1,0l-3.7,17.4l-1.1,0l1.3-6.2l0,0c-1,1-2.6,1.7-4.3,1.6c-2.9-0.1-4.8-2.3-4.7-5.8
		c0.1-4.3,3.2-7.8,6.9-7.6C114.7,212.4,116.2,213.2,117,214.6L117,214.6z M110.8,224.7c2.3,0.1,4.2-1.4,4.6-3.2l1.2-5.5
		c-0.5-1.6-1.9-2.6-3.8-2.7c-3.1-0.1-5.7,2.9-5.8,6.6C107,222.9,108.4,224.6,110.8,224.7z"/>
	<path class="st0" d="M90.8,216.1l10.1,1.9c0.1-0.2,0.1-0.4,0.2-0.8c0.5-2.9-0.7-4.8-3.2-5.3c-1.8-0.3-3.6,0.4-5.1,2l-0.7-0.8
		c1.6-1.8,3.8-2.6,6-2.2c3.1,0.6,4.7,3.1,4.1,6.5c-0.7,4.1-4.2,7.2-7.7,6.5c-3-0.5-4.6-3.1-4-6.4C90.6,217,90.7,216.5,90.8,216.1z
		 M98.1,222.1c1.1-0.8,1.9-1.8,2.5-3.3l-9-1.6c-0.7,3,0.5,5.2,3,5.7C95.9,223.1,97,222.8,98.1,222.1z"/>
	<path class="st0" d="M87.4,213.5c0.5-2.6-0.4-4.2-2.7-5c-2-0.7-3.6-0.1-4.1,1.3c-0.4,1.3,0.2,2.4,2.3,4c2.3,1.8,3,2.9,2.5,4.4
		c-0.6,1.9-2.7,2.7-5,2c-2.4-0.8-3.7-2.7-3.3-5l1.1,0.1c-0.2,1.9,0.7,3.3,2.6,4c1.7,0.6,3.2,0,3.6-1.4c0.3-1-0.2-1.8-2.1-3.3
		c-2.6-2-3.3-3.3-2.7-5.2c0.7-2,2.8-2.8,5.4-1.9c2.9,1,4.2,3.2,3.5,6.1L87.4,213.5z"/>
	<path class="st0" d="M76.2,206.9l-2-0.9l1.2-1.8l2,0.9L76.2,206.9z"/>
	<path class="st0" d="M58,209.9c-2.4-1.4-3-4-1.8-6.5l0.7,0.3c-1.1,2.3-0.6,4.4,1.5,5.6c2.8,1.7,6.5,0.3,8.6-3.2
		c1.5-2.5,1-5.1-1.2-6.4c-2-1.2-4.2-0.8-6.3,0.7l-0.5-0.6c2.3-1.7,4.9-2.1,7.1-0.7c2.6,1.5,3.2,4.6,1.5,7.4
		C65.5,210.2,61.1,211.8,58,209.9z"/>
	<path class="st0" d="M44.6,200.3c-2.4-1.9-2.5-5.1-0.4-7.6c2.7-3.4,7.3-4.2,10.1-1.8c2.4,1.9,2.5,5.1,0.4,7.6
		C52,201.9,47.4,202.7,44.6,200.3z M45,199.7c2.6,2.1,6.5,1.3,9.1-1.8c1.8-2.2,1.7-4.9-0.3-6.6c-2.6-2.1-6.5-1.3-9.1,1.8
		C42.9,195.4,43,198.1,45,199.7z"/>
	<path class="st0" d="M43.5,187.5l-7.3,4.6l-0.5-0.6l7.1-4.5c0.3-0.2,0.6-0.4,0.8-0.6c1.4-1.3,1.4-2.9,0-4.5c-0.8-0.9-1.8-1.4-3-1.6
		c-1.2-0.1-2.3,0.1-3.3,0.7l-7.1,4.5l-0.5-0.6l10.9-6.9l0.5,0.6l-1.6,1l0,0c1.7-0.2,3.4,0.5,4.6,1.8c1.7,1.8,1.7,3.9,0,5.4
		C44.1,187.1,43.9,187.3,43.5,187.5z"/>
	<path class="st0" d="M26.3,180.4l-0.4-0.6l1.3-0.7l0,0c-1.2,0.1-2.3-0.3-3-1.3c-0.2-0.3-0.3-0.5-0.4-0.8l0.7-0.3
		c0.2,0.4,0.3,0.6,0.4,0.7c1,1.4,2.8,1.5,4.8,0.5l7.9-3.9l0.5,0.6L26.3,180.4z"/>
	<path class="st0" d="M31.2,168.8l1.9-0.7l0.4,0.6l-16.8,6l-0.4-0.7l6.1-2.2l0,0c-1.5-0.3-3-1.3-3.8-2.8c-1.5-2.6-0.5-5.3,2.5-7
		c3.7-2.2,8.3-1.3,10.1,1.9C32.1,165.6,32.1,167.3,31.2,168.8L31.2,168.8z M19.2,168.7c1.1,2,3.5,3,5.3,2.4l5.7-2
		c1.1-1.3,1.3-3.2,0.3-4.8c-1.6-2.9-5.7-3.6-9.1-1.6C18.8,164.2,18,166.5,19.2,168.7z"/>
	<path class="st0" d="M16.3,147.1l3.7,9.8c0.4-0.1,0.7-0.2,0.9-0.3c2.9-1.1,4-3.3,3-5.8c-0.7-1.9-2.4-3.1-4.6-3.5l0.2-0.7
		c2.4,0.4,4.3,1.9,5.1,4c1.1,2.9-0.2,5.5-3.4,6.8c-3.9,1.6-8.3,0.2-9.6-3.2c-1-2.7,0.3-5.4,3.4-6.6
		C15.5,147.3,15.9,147.2,16.3,147.1z M12.3,153.8c0.5,1.3,1.4,2.2,2.7,2.8s2.7,0.7,4.3,0.4l-3.4-9c-0.2,0-0.4,0.1-0.7,0.2
		C12.5,149.3,11.4,151.5,12.3,153.8z"/>
	<path class="st0" d="M16.9,142.9c2.6-0.9,3.6-2.6,3-5.1c-0.5-2.2-1.9-3.3-3.5-2.9c-1.5,0.3-2.1,1.5-2.4,4.3
		c-0.3,2.9-0.9,3.9-2.3,4.3c-1,0.2-1.8,0.1-2.6-0.5c-0.8-0.6-1.3-1.4-1.6-2.6c-0.6-2.4,0.4-4.5,2.6-5.4l0.3,0.7
		c-1.9,0.8-2.7,2.5-2.2,4.5c0.4,1.9,1.8,2.9,3.3,2.5c1.1-0.3,1.5-1.1,1.8-3.6c0.2-1.6,0.5-2.8,0.9-3.5c0.4-0.7,1.1-1.2,2-1.4
		c2.1-0.5,3.8,0.9,4.4,3.5c0.7,2.9-0.6,5.1-3.4,6L16.9,142.9z"/>
	<path class="st0" d="M16.9,129.7l-0.2-1.8l1.8,0.1l0.2,1.8L16.9,129.7z"/>
</g>
</svg>
